<svg viewBox="0 0 32 32" xmlns="http://www.w3.org/2000/svg" fill-rule="evenodd" clip-rule="evenodd" stroke-linejoin="round" stroke-miterlimit="1.414"><path d="M28 32l4-4-6-6-4 4 6 6z"/><path d="M15 0c8.28 0 15 6.72 15 15 0 8.28-6.72 15-15 15-8.28 0-15-6.72-15-15C0 6.72 6.72 0 15 0zm0 3c6.623 0 12 5.377 12 12s-5.377 12-12 12S3 21.623 3 15 8.377 3 15 3z"/><path d="M18 4.415c1.485.42 2.842 1.145 4 2.102V7h-4V4.415z" fill-opacity=".1"/><path d="M13 4.182c.65-.12 1.317-.182 2-.182s1.35.062 2 .182V7h-4V4.182z" fill-opacity=".25"/><path d="M12 4.415V7H8v-.483c1.158-.957 2.516-1.682 4-2.102z" fill-opacity=".5"/><path d="M23.483 8c.957 1.158 1.682 2.516 2.102 4H23V8h.483z" fill-opacity=".1"/><path fill-opacity=".25" d="M18 8h4v4h-4z"/><path fill-opacity=".5" d="M13 8h4v4h-4z"/><path fill-opacity=".7" d="M8 8h4v4H8z"/><path d="M7 12H4.415c.42-1.485 1.145-2.842 2.102-4H7v4z" fill-opacity=".5"/><path d="M25.818 13c.12.65.182 1.317.182 2s-.062 1.35-.182 2H23v-4h2.818z" fill-opacity=".25"/><path fill-opacity=".5" d="M18 13h4v4h-4z"/><path fill-opacity=".8" d="M13 13h4v4h-4z"/><path fill-opacity=".5" d="M8 13h4v4H8z"/><path d="M7 17H4.182C4.062 16.35 4 15.683 4 15s.062-1.35.182-2H7v4z" fill-opacity=".25"/><path d="M25.585 18c-.42 1.485-1.145 2.842-2.102 4H23v-4h2.585z" fill-opacity=".5"/><path fill-opacity=".7" d="M18 18h4v4h-4z"/><path fill-opacity=".5" d="M13 18h4v4h-4z"/><path fill-opacity=".25" d="M8 18h4v4H8z"/><path d="M7 22h-.483c-.957-1.158-1.682-2.516-2.102-4H7v4z" fill-opacity=".1"/><path d="M18 25.585V23h4v.483c-1.158.957-2.516 1.682-4 2.102z" fill-opacity=".5"/><path d="M13 25.818V23h4v2.818c-.65.12-1.317.182-2 .182s-1.35-.062-2-.182z" fill-opacity=".25"/><path d="M8 23.483V23h4v2.585c-1.485-.42-2.842-1.145-4-2.102z" fill-opacity=".1"/></svg>
